<svg width="1024" height="753" viewBox="0 0 1024 753" fill="none" xmlns="http://www.w3.org/2000/svg">
<g clip-path="url(#clip0_175_1884)">
<rect width="1024" height="753" fill="#121214"/>
<g opacity="0.2" filter="url(#filter0_f_175_1884)">
<ellipse cx="-185.5" cy="-6" rx="670.5" ry="350" fill="#338AF3"/>
</g>
<g opacity="0.6">
<path d="M221.93 -70C223.356 -70 224.436 -69.395 225.17 -68.1851C225.916 -66.9885 226.29 -65.2468 226.29 -62.9599C226.29 -60.673 225.916 -58.9246 225.17 -57.7147C224.436 -56.5048 223.356 -55.8998 221.93 -55.8998C220.517 -55.8998 219.437 -56.5048 218.69 -57.7147C217.943 -58.9246 217.57 -60.673 217.57 -62.9599C217.57 -65.2335 217.943 -66.9752 218.69 -68.1851C219.437 -69.395 220.517 -70 221.93 -70ZM218.99 -62.9599C218.99 -61.3378 219.137 -60.068 219.43 -59.1506L223.87 -67.9857C223.403 -68.6106 222.756 -68.923 221.93 -68.923C221.01 -68.923 220.29 -68.4311 219.77 -67.4472C219.25 -66.4766 218.99 -64.9808 218.99 -62.9599ZM221.93 -56.9967C222.863 -56.9967 223.59 -57.482 224.11 -58.4526C224.63 -59.4365 224.89 -60.9389 224.89 -62.9599C224.89 -64.675 224.723 -66.0046 224.39 -66.9486L219.95 -58.0338C220.43 -57.3424 221.09 -56.9967 221.93 -56.9967Z" fill="url(#paint0_linear_175_1884)"/>
<path d="M223.13 -34.3635H226.07V-33.3064H218.45V-34.3635H221.85V-45.5718L218.61 -43.6373L218.05 -44.5347L222.05 -47.0078H223.13V-34.3635Z" fill="url(#paint1_linear_175_1884)"/>
<path d="M221.93 -24.4144C223.356 -24.4144 224.436 -23.8094 225.17 -22.5995C225.916 -21.4029 226.29 -19.6611 226.29 -17.3743C226.29 -15.0874 225.916 -13.339 225.17 -12.1291C224.436 -10.9192 223.356 -10.3142 221.93 -10.3142C220.517 -10.3142 219.437 -10.9192 218.69 -12.1291C217.943 -13.339 217.57 -15.0874 217.57 -17.3743C217.57 -19.6478 217.943 -21.3896 218.69 -22.5995C219.437 -23.8094 220.517 -24.4144 221.93 -24.4144ZM218.99 -17.3743C218.99 -15.7522 219.137 -14.4824 219.43 -13.565L223.87 -22.4001C223.403 -23.025 222.756 -23.3374 221.93 -23.3374C221.01 -23.3374 220.29 -22.8455 219.77 -21.8616C219.25 -20.891 218.99 -19.3952 218.99 -17.3743ZM221.93 -11.4111C222.863 -11.4111 223.59 -11.8964 224.11 -12.867C224.63 -13.8509 224.89 -15.3533 224.89 -17.3743C224.89 -19.0894 224.723 -20.419 224.39 -21.363L219.95 -12.4482C220.43 -11.7568 221.09 -11.4111 221.93 -11.4111Z" fill="url(#paint2_linear_175_1884)"/>
<path d="M223.13 11.2221H226.07V12.2792H218.45V11.2221H221.85V0.0137888L218.61 1.94833L218.05 1.05086L222.05 -1.42216H223.13V11.2221Z" fill="url(#paint3_linear_175_1884)"/>
<path d="M223.13 34.015H226.07V35.072H218.45V34.015H221.85V22.8066L218.61 24.7411L218.05 23.8437L222.05 21.3706H223.13V34.015Z" fill="url(#paint4_linear_175_1884)"/>
<path d="M221.93 43.964C223.356 43.964 224.436 44.569 225.17 45.7789C225.916 46.9755 226.29 48.7173 226.29 51.0041C226.29 53.291 225.916 55.0394 225.17 56.2493C224.436 57.4593 223.356 58.0642 221.93 58.0642C220.517 58.0642 219.437 57.4593 218.69 56.2493C217.943 55.0394 217.57 53.291 217.57 51.0041C217.57 48.7306 217.943 46.9888 218.69 45.7789C219.437 44.569 220.517 43.964 221.93 43.964ZM218.99 51.0041C218.99 52.6262 219.137 53.896 219.43 54.8134L223.87 45.9783C223.403 45.3534 222.756 45.041 221.93 45.041C221.01 45.041 220.29 45.5329 219.77 46.5168C219.25 47.4874 218.99 48.9832 218.99 51.0041ZM221.93 56.9673C222.863 56.9673 223.59 56.482 224.11 55.5114C224.63 54.5275 224.89 53.0251 224.89 51.0041C224.89 49.289 224.723 47.9594 224.39 47.0154L219.95 55.9302C220.43 56.6216 221.09 56.9673 221.93 56.9673Z" fill="url(#paint5_linear_175_1884)"/>
<path d="M223.13 79.6006H226.07V80.6576H218.45V79.6006H221.85V68.3922L218.61 70.3267L218.05 69.4293L222.05 66.9562H223.13V79.6006Z" fill="url(#paint6_linear_175_1884)"/>
<path d="M221.93 89.5496C223.356 89.5496 224.436 90.1546 225.17 91.3645C225.916 92.5611 226.29 94.3029 226.29 96.5898C226.29 98.8766 225.916 100.625 225.17 101.835C224.436 103.045 223.356 103.65 221.93 103.65C220.517 103.65 219.437 103.045 218.69 101.835C217.943 100.625 217.57 98.8766 217.57 96.5898C217.57 94.3162 217.943 92.5744 218.69 91.3645C219.437 90.1546 220.517 89.5496 221.93 89.5496ZM218.99 96.5898C218.99 98.2118 219.137 99.4816 219.43 100.399L223.87 91.5639C223.403 90.939 222.756 90.6266 221.93 90.6266C221.01 90.6266 220.29 91.1185 219.77 92.1024C219.25 93.073 218.99 94.5688 218.99 96.5898ZM221.93 102.553C222.863 102.553 223.59 102.068 224.11 101.097C224.63 100.113 224.89 98.6107 224.89 96.5898C224.89 94.8746 224.723 93.545 224.39 92.601L219.95 101.516C220.43 102.207 221.09 102.553 221.93 102.553Z" fill="url(#paint7_linear_175_1884)"/>
<path d="M221.93 112.342C223.356 112.342 224.436 112.947 225.17 114.157C225.916 115.354 226.29 117.096 226.29 119.383C226.29 121.669 225.916 123.418 225.17 124.628C224.436 125.838 223.356 126.443 221.93 126.443C220.517 126.443 219.437 125.838 218.69 124.628C217.943 123.418 217.57 121.669 217.57 119.383C217.57 117.109 217.943 115.367 218.69 114.157C219.437 112.947 220.517 112.342 221.93 112.342ZM218.99 119.383C218.99 121.005 219.137 122.274 219.43 123.192L223.87 114.357C223.403 113.732 222.756 113.419 221.93 113.419C221.01 113.419 220.29 113.911 219.77 114.895C219.25 115.866 218.99 117.362 218.99 119.383ZM221.93 125.346C222.863 125.346 223.59 124.86 224.11 123.89C224.63 122.906 224.89 121.404 224.89 119.383C224.89 117.667 224.723 116.338 224.39 115.394L219.95 124.309C220.43 125 221.09 125.346 221.93 125.346Z" fill="url(#paint8_linear_175_1884)"/>
<path d="M223.13 147.979H226.07V149.036H218.45V147.979H221.85V136.771L218.61 138.705L218.05 137.808L222.05 135.335H223.13V147.979Z" fill="url(#paint9_linear_175_1884)"/>
<path d="M221.93 157.928C223.356 157.928 224.436 158.533 225.17 159.743C225.916 160.94 226.29 162.681 226.29 164.968C226.29 167.255 225.916 169.003 225.17 170.213C224.436 171.423 223.356 172.028 221.93 172.028C220.517 172.028 219.437 171.423 218.69 170.213C217.943 169.003 217.57 167.255 217.57 164.968C217.57 162.695 217.943 160.953 218.69 159.743C219.437 158.533 220.517 157.928 221.93 157.928ZM218.99 164.968C218.99 166.59 219.137 167.86 219.43 168.777L223.87 159.942C223.403 159.317 222.756 159.005 221.93 159.005C221.01 159.005 220.29 159.497 219.77 160.481C219.25 161.451 218.99 162.947 218.99 164.968ZM221.93 170.931C222.863 170.931 223.59 170.446 224.11 169.475C224.63 168.492 224.89 166.989 224.89 164.968C224.89 163.253 224.723 161.923 224.39 160.979L219.95 169.894C220.43 170.586 221.09 170.931 221.93 170.931Z" fill="url(#paint10_linear_175_1884)"/>
<path d="M223.13 193.565H226.07V194.622H218.45V193.565H221.85V182.356L218.61 184.291L218.05 183.393L222.05 180.92H223.13V193.565Z" fill="url(#paint11_linear_175_1884)"/>
<path d="M223.13 216.357H226.07V217.414H218.45V216.357H221.85V205.149L218.61 207.084L218.05 206.186L222.05 203.713H223.13V216.357Z" fill="url(#paint12_linear_175_1884)"/>
<path d="M259.07 -24.4144C260.497 -24.4144 261.577 -23.8094 262.31 -22.5995C263.057 -21.4029 263.43 -19.6611 263.43 -17.3743C263.43 -15.0874 263.057 -13.339 262.31 -12.1291C261.577 -10.9192 260.497 -10.3142 259.07 -10.3142C257.657 -10.3142 256.577 -10.9192 255.83 -12.1291C255.084 -13.339 254.71 -15.0874 254.71 -17.3743C254.71 -19.6478 255.084 -21.3896 255.83 -22.5995C256.577 -23.8094 257.657 -24.4144 259.07 -24.4144ZM256.13 -17.3743C256.13 -15.7522 256.277 -14.4824 256.57 -13.565L261.01 -22.4001C260.543 -23.025 259.897 -23.3374 259.07 -23.3374C258.15 -23.3374 257.43 -22.8455 256.91 -21.8616C256.39 -20.891 256.13 -19.3952 256.13 -17.3743ZM259.07 -11.4111C260.003 -11.4111 260.73 -11.8964 261.25 -12.867C261.77 -13.8509 262.03 -15.3533 262.03 -17.3743C262.03 -19.0894 261.863 -20.419 261.53 -21.363L257.09 -12.4482C257.57 -11.7568 258.23 -11.4111 259.07 -11.4111Z" fill="url(#paint13_linear_175_1884)"/>
<path d="M260.27 11.2221H263.21V12.2792H255.59V11.2221H258.99V0.0137888L255.75 1.94833L255.19 1.05086L259.19 -1.42216H260.27V11.2221Z" fill="url(#paint14_linear_175_1884)"/>
<path d="M259.07 21.1712C260.497 21.1712 261.577 21.7762 262.31 22.9861C263.057 24.1827 263.43 25.9245 263.43 28.2113C263.43 30.4982 263.057 32.2466 262.31 33.4565C261.577 34.6664 260.497 35.2714 259.07 35.2714C257.657 35.2714 256.577 34.6664 255.83 33.4565C255.084 32.2466 254.71 30.4982 254.71 28.2113C254.71 25.9378 255.084 24.196 255.83 22.9861C256.577 21.7762 257.657 21.1712 259.07 21.1712ZM256.13 28.2113C256.13 29.8334 256.277 31.1032 256.57 32.0206L261.01 23.1855C260.543 22.5606 259.897 22.2482 259.07 22.2482C258.15 22.2482 257.43 22.7401 256.91 23.724C256.39 24.6946 256.13 26.1904 256.13 28.2113ZM259.07 34.1745C260.003 34.1745 260.73 33.6892 261.25 32.7186C261.77 31.7347 262.03 30.2323 262.03 28.2113C262.03 26.4962 261.863 25.1666 261.53 24.2226L257.09 33.1374C257.57 33.8288 258.23 34.1745 259.07 34.1745Z" fill="url(#paint15_linear_175_1884)"/>
<path d="M259.07 43.964C260.497 43.964 261.577 44.569 262.31 45.7789C263.057 46.9755 263.43 48.7173 263.43 51.0041C263.43 53.291 263.057 55.0394 262.31 56.2493C261.577 57.4593 260.497 58.0642 259.07 58.0642C257.657 58.0642 256.577 57.4593 255.83 56.2493C255.084 55.0394 254.71 53.291 254.71 51.0041C254.71 48.7306 255.084 46.9888 255.83 45.7789C256.577 44.569 257.657 43.964 259.07 43.964ZM256.13 51.0041C256.13 52.6262 256.277 53.896 256.57 54.8134L261.01 45.9783C260.543 45.3534 259.897 45.041 259.07 45.041C258.15 45.041 257.43 45.5329 256.91 46.5168C256.39 47.4874 256.13 48.9832 256.13 51.0041ZM259.07 56.9673C260.003 56.9673 260.73 56.482 261.25 55.5114C261.77 54.5275 262.03 53.0251 262.03 51.0041C262.03 49.289 261.863 47.9594 261.53 47.0154L257.09 55.9302C257.57 56.6216 258.23 56.9673 259.07 56.9673Z" fill="url(#paint16_linear_175_1884)"/>
<path d="M260.27 79.6006H263.21V80.6576H255.59V79.6006H258.99V68.3922L255.75 70.3267L255.19 69.4293L259.19 66.9562H260.27V79.6006Z" fill="url(#paint17_linear_175_1884)"/>
<path d="M259.07 89.5496C260.497 89.5496 261.577 90.1546 262.31 91.3645C263.057 92.5611 263.43 94.3029 263.43 96.5898C263.43 98.8766 263.057 100.625 262.31 101.835C261.577 103.045 260.497 103.65 259.07 103.65C257.657 103.65 256.577 103.045 255.83 101.835C255.084 100.625 254.71 98.8766 254.71 96.5898C254.71 94.3162 255.084 92.5744 255.83 91.3645C256.577 90.1546 257.657 89.5496 259.07 89.5496ZM256.13 96.5898C256.13 98.2118 256.277 99.4816 256.57 100.399L261.01 91.5639C260.543 90.939 259.897 90.6266 259.07 90.6266C258.15 90.6266 257.43 91.1185 256.91 92.1024C256.39 93.073 256.13 94.5688 256.13 96.5898ZM259.07 102.553C260.003 102.553 260.73 102.068 261.25 101.097C261.77 100.113 262.03 98.6107 262.03 96.5898C262.03 94.8746 261.863 93.545 261.53 92.601L257.09 101.516C257.57 102.207 258.23 102.553 259.07 102.553Z" fill="url(#paint18_linear_175_1884)"/>
<path d="M260.27 125.186H263.21V126.243H255.59V125.186H258.99V113.978L255.75 115.912L255.19 115.015L259.19 112.542H260.27V125.186Z" fill="url(#paint19_linear_175_1884)"/>
<path d="M259.07 135.135C260.497 135.135 261.577 135.74 262.31 136.95C263.057 138.147 263.43 139.888 263.43 142.175C263.43 144.462 263.057 146.211 262.31 147.421C261.577 148.63 260.497 149.235 259.07 149.235C257.657 149.235 256.577 148.63 255.83 147.421C255.084 146.211 254.71 144.462 254.71 142.175C254.71 139.902 255.084 138.16 255.83 136.95C256.577 135.74 257.657 135.135 259.07 135.135ZM256.13 142.175C256.13 143.797 256.277 145.067 256.57 145.985L261.01 137.15C260.543 136.525 259.897 136.212 259.07 136.212C258.15 136.212 257.43 136.704 256.91 137.688C256.39 138.659 256.13 140.154 256.13 142.175ZM259.07 148.139C260.003 148.139 260.73 147.653 261.25 146.683C261.77 145.699 262.03 144.196 262.03 142.175C262.03 140.46 261.863 139.131 261.53 138.187L257.09 147.101C257.57 147.793 258.23 148.139 259.07 148.139Z" fill="url(#paint20_linear_175_1884)"/>
<path d="M259.07 157.928C260.497 157.928 261.577 158.533 262.31 159.743C263.057 160.94 263.43 162.681 263.43 164.968C263.43 167.255 263.057 169.003 262.31 170.213C261.577 171.423 260.497 172.028 259.07 172.028C257.657 172.028 256.577 171.423 255.83 170.213C255.084 169.003 254.71 167.255 254.71 164.968C254.71 162.695 255.084 160.953 255.83 159.743C256.577 158.533 257.657 157.928 259.07 157.928ZM256.13 164.968C256.13 166.59 256.277 167.86 256.57 168.777L261.01 159.942C260.543 159.317 259.897 159.005 259.07 159.005C258.15 159.005 257.43 159.497 256.91 160.481C256.39 161.451 256.13 162.947 256.13 164.968ZM259.07 170.931C260.003 170.931 260.73 170.446 261.25 169.475C261.77 168.492 262.03 166.989 262.03 164.968C262.03 163.253 261.863 161.923 261.53 160.979L257.09 169.894C257.57 170.586 258.23 170.931 259.07 170.931Z" fill="url(#paint21_linear_175_1884)"/>
<path d="M260.27 193.565H263.21V194.622H255.59V193.565H258.99V182.356L255.75 184.291L255.19 183.393L259.19 180.92H260.27V193.565Z" fill="url(#paint22_linear_175_1884)"/>
<path d="M259.07 203.514C260.497 203.514 261.577 204.119 262.31 205.329C263.057 206.525 263.43 208.267 263.43 210.554C263.43 212.841 263.057 214.589 262.31 215.799C261.577 217.009 260.497 217.614 259.07 217.614C257.657 217.614 256.577 217.009 255.83 215.799C255.084 214.589 254.71 212.841 254.71 210.554C254.71 208.28 255.084 206.538 255.83 205.329C256.577 204.119 257.657 203.514 259.07 203.514ZM256.13 210.554C256.13 212.176 256.277 213.446 256.57 214.363L261.01 205.528C260.543 204.903 259.897 204.591 259.07 204.591C258.15 204.591 257.43 205.083 256.91 206.066C256.39 207.037 256.13 208.533 256.13 210.554ZM259.07 216.517C260.003 216.517 260.73 216.032 261.25 215.061C261.77 214.077 262.03 212.575 262.03 210.554C262.03 208.839 261.863 207.509 261.53 206.565L257.09 215.48C257.57 216.171 258.23 216.517 259.07 216.517Z" fill="url(#paint23_linear_175_1884)"/>
<path d="M260.27 239.15H263.21V240.207H255.59V239.15H258.99V227.942L255.75 229.876L255.19 228.979L259.19 226.506H260.27V239.15Z" fill="url(#paint24_linear_175_1884)"/>
<path d="M260.27 261.943H263.21V263H255.59V261.943H258.99V250.735L255.75 252.669L255.19 251.772L259.19 249.299H260.27V261.943Z" fill="url(#paint25_linear_175_1884)"/>
<path d="M203.36 -1.62159C204.786 -1.62159 205.866 -1.01663 206.599 0.19329C207.346 1.38991 207.719 3.13166 207.719 5.41854C207.719 7.70542 207.346 9.45381 206.599 10.6637C205.866 11.8736 204.786 12.4786 203.36 12.4786C201.946 12.4786 200.867 11.8736 200.12 10.6637C199.373 9.45381 199 7.70542 199 5.41854C199 3.14496 199.373 1.40321 200.12 0.19329C200.867 -1.01663 201.946 -1.62159 203.36 -1.62159ZM200.42 5.41854C200.42 7.04063 200.567 8.31037 200.86 9.22778L205.3 0.392726C204.833 -0.232177 204.186 -0.544631 203.36 -0.544631C202.44 -0.544631 201.72 -0.0526885 201.2 0.931201C200.68 1.90179 200.42 3.39758 200.42 5.41854ZM203.36 11.3817C204.293 11.3817 205.02 10.8964 205.54 9.92581C206.06 8.94192 206.319 7.4395 206.319 5.41854C206.319 3.70338 206.153 2.37379 205.82 1.42979L201.38 10.3446C201.86 11.036 202.52 11.3817 203.36 11.3817Z" fill="url(#paint26_linear_175_1884)"/>
<path d="M203.36 21.1712C204.786 21.1712 205.866 21.7762 206.599 22.9861C207.346 24.1827 207.719 25.9245 207.719 28.2113C207.719 30.4982 207.346 32.2466 206.599 33.4565C205.866 34.6664 204.786 35.2714 203.36 35.2714C201.946 35.2714 200.867 34.6664 200.12 33.4565C199.373 32.2466 199 30.4982 199 28.2113C199 25.9378 199.373 24.196 200.12 22.9861C200.867 21.7762 201.946 21.1712 203.36 21.1712ZM200.42 28.2113C200.42 29.8334 200.567 31.1032 200.86 32.0206L205.3 23.1855C204.833 22.5606 204.186 22.2482 203.36 22.2482C202.44 22.2482 201.72 22.7401 201.2 23.724C200.68 24.6946 200.42 26.1904 200.42 28.2113ZM203.36 34.1745C204.293 34.1745 205.02 33.6892 205.54 32.7186C206.06 31.7347 206.319 30.2323 206.319 28.2113C206.319 26.4962 206.153 25.1666 205.82 24.2226L201.38 33.1374C201.86 33.8288 202.52 34.1745 203.36 34.1745Z" fill="url(#paint27_linear_175_1884)"/>
<path d="M204.56 56.8078H207.499V57.8648H199.88V56.8078H203.28V45.5994L200.04 47.5339L199.48 46.6365L203.48 44.1635H204.56V56.8078Z" fill="url(#paint28_linear_175_1884)"/>
<path d="M203.36 66.7568C204.786 66.7568 205.866 67.3618 206.599 68.5717C207.346 69.7683 207.719 71.5101 207.719 73.7969C207.719 76.0838 207.346 77.8322 206.599 79.0421C205.866 80.2521 204.786 80.857 203.36 80.857C201.946 80.857 200.867 80.2521 200.12 79.0421C199.373 77.8322 199 76.0838 199 73.7969C199 71.5234 199.373 69.7816 200.12 68.5717C200.867 67.3618 201.946 66.7568 203.36 66.7568ZM200.42 73.7969C200.42 75.419 200.567 76.6888 200.86 77.6062L205.3 68.7711C204.833 68.1462 204.186 67.8338 203.36 67.8338C202.44 67.8338 201.72 68.3257 201.2 69.3096C200.68 70.2802 200.42 71.776 200.42 73.7969ZM203.36 79.7601C204.293 79.7601 205.02 79.2748 205.54 78.3042C206.06 77.3203 206.319 75.8179 206.319 73.7969C206.319 72.0818 206.153 70.7522 205.82 69.8082L201.38 78.723C201.86 79.4144 202.52 79.7601 203.36 79.7601Z" fill="url(#paint29_linear_175_1884)"/>
<path d="M204.56 102.393H207.499V103.45H199.88V102.393H203.28V91.185L200.04 93.1195L199.48 92.2221L203.48 89.7491H204.56V102.393Z" fill="url(#paint30_linear_175_1884)"/>
<path d="M204.56 125.186H207.499V126.243H199.88V125.186H203.28V113.978L200.04 115.912L199.48 115.015L203.48 112.542H204.56V125.186Z" fill="url(#paint31_linear_175_1884)"/>
<path d="M241.7 -34.3635H244.64V-33.3064H237.02V-34.3635H240.42V-45.5718L237.18 -43.6373L236.62 -44.5347L240.62 -47.0078H241.7V-34.3635Z" fill="url(#paint32_linear_175_1884)"/>
<path d="M240.5 -24.4144C241.927 -24.4144 243.006 -23.8094 243.74 -22.5995C244.486 -21.4029 244.86 -19.6611 244.86 -17.3743C244.86 -15.0874 244.486 -13.339 243.74 -12.1291C243.006 -10.9192 241.927 -10.3142 240.5 -10.3142C239.087 -10.3142 238.007 -10.9192 237.26 -12.1291C236.514 -13.339 236.14 -15.0874 236.14 -17.3743C236.14 -19.6478 236.514 -21.3896 237.26 -22.5995C238.007 -23.8094 239.087 -24.4144 240.5 -24.4144ZM237.56 -17.3743C237.56 -15.7522 237.707 -14.4824 238 -13.565L242.44 -22.4001C241.973 -23.025 241.327 -23.3374 240.5 -23.3374C239.58 -23.3374 238.86 -22.8455 238.34 -21.8616C237.82 -20.891 237.56 -19.3952 237.56 -17.3743ZM240.5 -11.4111C241.433 -11.4111 242.16 -11.8964 242.68 -12.867C243.2 -13.8509 243.46 -15.3533 243.46 -17.3743C243.46 -19.0894 243.293 -20.419 242.96 -21.363L238.52 -12.4482C239 -11.7568 239.66 -11.4111 240.5 -11.4111Z" fill="url(#paint33_linear_175_1884)"/>
<path d="M241.7 11.2221H244.64V12.2792H237.02V11.2221H240.42V0.0137888L237.18 1.94833L236.62 1.05086L240.62 -1.42216H241.7V11.2221Z" fill="url(#paint34_linear_175_1884)"/>
<path d="M241.7 34.015H244.64V35.072H237.02V34.015H240.42V22.8066L237.18 24.7411L236.62 23.8437L240.62 21.3706H241.7V34.015Z" fill="url(#paint35_linear_175_1884)"/>
<path d="M240.5 43.964C241.927 43.964 243.006 44.569 243.74 45.7789C244.486 46.9755 244.86 48.7173 244.86 51.0041C244.86 53.291 244.486 55.0394 243.74 56.2493C243.006 57.4593 241.927 58.0642 240.5 58.0642C239.087 58.0642 238.007 57.4593 237.26 56.2493C236.514 55.0394 236.14 53.291 236.14 51.0041C236.14 48.7306 236.514 46.9888 237.26 45.7789C238.007 44.569 239.087 43.964 240.5 43.964ZM237.56 51.0041C237.56 52.6262 237.707 53.896 238 54.8134L242.44 45.9783C241.973 45.3534 241.327 45.041 240.5 45.041C239.58 45.041 238.86 45.5329 238.34 46.5168C237.82 47.4874 237.56 48.9832 237.56 51.0041ZM240.5 56.9673C241.433 56.9673 242.16 56.482 242.68 55.5114C243.2 54.5275 243.46 53.0251 243.46 51.0041C243.46 49.289 243.293 47.9594 242.96 47.0154L238.52 55.9302C239 56.6216 239.66 56.9673 240.5 56.9673Z" fill="url(#paint36_linear_175_1884)"/>
<path d="M241.7 79.6006H244.64V80.6576H237.02V79.6006H240.42V68.3922L237.18 70.3267L236.62 69.4293L240.62 66.9562H241.7V79.6006Z" fill="url(#paint37_linear_175_1884)"/>
<path d="M241.7 102.393H244.64V103.45H237.02V102.393H240.42V91.185L237.18 93.1195L236.62 92.2221L240.62 89.7491H241.7V102.393Z" fill="url(#paint38_linear_175_1884)"/>
<path d="M240.5 112.342C241.927 112.342 243.006 112.947 243.74 114.157C244.486 115.354 244.86 117.096 244.86 119.383C244.86 121.669 244.486 123.418 243.74 124.628C243.006 125.838 241.927 126.443 240.5 126.443C239.087 126.443 238.007 125.838 237.26 124.628C236.514 123.418 236.14 121.669 236.14 119.383C236.14 117.109 236.514 115.367 237.26 114.157C238.007 112.947 239.087 112.342 240.5 112.342ZM237.56 119.383C237.56 121.005 237.707 122.274 238 123.192L242.44 114.357C241.973 113.732 241.327 113.419 240.5 113.419C239.58 113.419 238.86 113.911 238.34 114.895C237.82 115.866 237.56 117.362 237.56 119.383ZM240.5 125.346C241.433 125.346 242.16 124.86 242.68 123.89C243.2 122.906 243.46 121.404 243.46 119.383C243.46 117.667 243.293 116.338 242.96 115.394L238.52 124.309C239 125 239.66 125.346 240.5 125.346Z" fill="url(#paint39_linear_175_1884)"/>
<path d="M241.7 147.979H244.64V149.036H237.02V147.979H240.42V136.771L237.18 138.705L236.62 137.808L240.62 135.335H241.7V147.979Z" fill="url(#paint40_linear_175_1884)"/>
<path d="M240.5 157.928C241.927 157.928 243.006 158.533 243.74 159.743C244.486 160.94 244.86 162.681 244.86 164.968C244.86 167.255 244.486 169.003 243.74 170.213C243.006 171.423 241.927 172.028 240.5 172.028C239.087 172.028 238.007 171.423 237.26 170.213C236.514 169.003 236.14 167.255 236.14 164.968C236.14 162.695 236.514 160.953 237.26 159.743C238.007 158.533 239.087 157.928 240.5 157.928ZM237.56 164.968C237.56 166.59 237.707 167.86 238 168.777L242.44 159.942C241.973 159.317 241.327 159.005 240.5 159.005C239.58 159.005 238.86 159.497 238.34 160.481C237.82 161.451 237.56 162.947 237.56 164.968ZM240.5 170.931C241.433 170.931 242.16 170.446 242.68 169.475C243.2 168.492 243.46 166.989 243.46 164.968C243.46 163.253 243.293 161.923 242.96 160.979L238.52 169.894C239 170.586 239.66 170.931 240.5 170.931Z" fill="url(#paint41_linear_175_1884)"/>
<path d="M277.64 -47.2072C279.067 -47.2072 280.147 -46.6022 280.88 -45.3923C281.627 -44.1957 282 -42.4539 282 -40.1671C282 -37.8802 281.627 -36.1318 280.88 -34.9219C280.147 -33.712 279.067 -33.107 277.64 -33.107C276.227 -33.107 275.147 -33.712 274.401 -34.9219C273.654 -36.1318 273.281 -37.8802 273.281 -40.1671C273.281 -42.4407 273.654 -44.1824 274.401 -45.3923C275.147 -46.6022 276.227 -47.2072 277.64 -47.2072ZM274.7 -40.1671C274.7 -38.545 274.847 -37.2752 275.14 -36.3578L279.58 -45.1929C279.114 -45.8178 278.467 -46.1302 277.64 -46.1302C276.72 -46.1302 276 -45.6383 275.48 -44.6544C274.96 -43.6838 274.7 -42.188 274.7 -40.1671ZM277.64 -34.2039C278.574 -34.2039 279.3 -34.6892 279.82 -35.6598C280.34 -36.6437 280.6 -38.1461 280.6 -40.1671C280.6 -41.8822 280.433 -43.2118 280.1 -44.1558L275.66 -35.241C276.14 -34.5496 276.8 -34.2039 277.64 -34.2039Z" fill="url(#paint42_linear_175_1884)"/>
<path d="M278.84 -11.5707H281.78V-10.5136H274.161V-11.5707H277.56V-22.779L274.321 -20.8445L273.761 -21.7419L277.76 -24.215H278.84V-11.5707Z" fill="url(#paint43_linear_175_1884)"/>
<path d="M278.84 11.2221H281.78V12.2792H274.161V11.2221H277.56V0.0137888L274.321 1.94833L273.761 1.05086L277.76 -1.42216H278.84V11.2221Z" fill="url(#paint44_linear_175_1884)"/>
<path d="M277.64 21.1712C279.067 21.1712 280.147 21.7762 280.88 22.9861C281.627 24.1827 282 25.9245 282 28.2113C282 30.4982 281.627 32.2466 280.88 33.4565C280.147 34.6664 279.067 35.2714 277.64 35.2714C276.227 35.2714 275.147 34.6664 274.401 33.4565C273.654 32.2466 273.281 30.4982 273.281 28.2113C273.281 25.9378 273.654 24.196 274.401 22.9861C275.147 21.7762 276.227 21.1712 277.64 21.1712ZM274.7 28.2113C274.7 29.8334 274.847 31.1032 275.14 32.0206L279.58 23.1855C279.114 22.5606 278.467 22.2482 277.64 22.2482C276.72 22.2482 276 22.7401 275.48 23.724C274.96 24.6946 274.7 26.1904 274.7 28.2113ZM277.64 34.1745C278.574 34.1745 279.3 33.6892 279.82 32.7186C280.34 31.7347 280.6 30.2323 280.6 28.2113C280.6 26.4962 280.433 25.1666 280.1 24.2226L275.66 33.1374C276.14 33.8288 276.8 34.1745 277.64 34.1745Z" fill="url(#paint45_linear_175_1884)"/>
<path d="M277.64 43.964C279.067 43.964 280.147 44.569 280.88 45.7789C281.627 46.9755 282 48.7173 282 51.0041C282 53.291 281.627 55.0394 280.88 56.2493C280.147 57.4593 279.067 58.0642 277.64 58.0642C276.227 58.0642 275.147 57.4593 274.401 56.2493C273.654 55.0394 273.281 53.291 273.281 51.0041C273.281 48.7306 273.654 46.9888 274.401 45.7789C275.147 44.569 276.227 43.964 277.64 43.964ZM274.7 51.0041C274.7 52.6262 274.847 53.896 275.14 54.8134L279.58 45.9783C279.114 45.3534 278.467 45.041 277.64 45.041C276.72 45.041 276 45.5329 275.48 46.5168C274.96 47.4874 274.7 48.9832 274.7 51.0041ZM277.64 56.9673C278.574 56.9673 279.3 56.482 279.82 55.5114C280.34 54.5275 280.6 53.0251 280.6 51.0041C280.6 49.289 280.433 47.9594 280.1 47.0154L275.66 55.9302C276.14 56.6216 276.8 56.9673 277.64 56.9673Z" fill="url(#paint46_linear_175_1884)"/>
</g>
</g>
<defs>
<filter id="filter0_f_175_1884" x="-1256.19" y="-756.19" width="2141.38" height="1500.38" filterUnits="userSpaceOnUse" color-interpolation-filters="sRGB">
<feFlood flood-opacity="0" result="BackgroundImageFix"/>
<feBlend mode="normal" in="SourceGraphic" in2="BackgroundImageFix" result="shape"/>
<feGaussianBlur stdDeviation="200.095" result="effect1_foregroundBlur_175_1884"/>
</filter>
<linearGradient id="paint0_linear_175_1884" x1="240.5" y1="-70" x2="240.5" y2="228.818" gradientUnits="userSpaceOnUse">
<stop stop-color="#F7DD43"/>
<stop offset="1" stop-color="#F7DD43" stop-opacity="0"/>
</linearGradient>
<linearGradient id="paint1_linear_175_1884" x1="240.5" y1="-70" x2="240.5" y2="228.818" gradientUnits="userSpaceOnUse">
<stop stop-color="#F7DD43"/>
<stop offset="1" stop-color="#F7DD43" stop-opacity="0"/>
</linearGradient>
<linearGradient id="paint2_linear_175_1884" x1="240.5" y1="-70" x2="240.5" y2="228.818" gradientUnits="userSpaceOnUse">
<stop stop-color="#F7DD43"/>
<stop offset="1" stop-color="#F7DD43" stop-opacity="0"/>
</linearGradient>
<linearGradient id="paint3_linear_175_1884" x1="240.5" y1="-70" x2="240.5" y2="228.818" gradientUnits="userSpaceOnUse">
<stop stop-color="#F7DD43"/>
<stop offset="1" stop-color="#F7DD43" stop-opacity="0"/>
</linearGradient>
<linearGradient id="paint4_linear_175_1884" x1="240.5" y1="-70" x2="240.5" y2="228.818" gradientUnits="userSpaceOnUse">
<stop stop-color="#F7DD43"/>
<stop offset="1" stop-color="#F7DD43" stop-opacity="0"/>
</linearGradient>
<linearGradient id="paint5_linear_175_1884" x1="240.5" y1="-70" x2="240.5" y2="228.818" gradientUnits="userSpaceOnUse">
<stop stop-color="#F7DD43"/>
<stop offset="1" stop-color="#F7DD43" stop-opacity="0"/>
</linearGradient>
<linearGradient id="paint6_linear_175_1884" x1="240.5" y1="-70" x2="240.5" y2="228.818" gradientUnits="userSpaceOnUse">
<stop stop-color="#F7DD43"/>
<stop offset="1" stop-color="#F7DD43" stop-opacity="0"/>
</linearGradient>
<linearGradient id="paint7_linear_175_1884" x1="240.5" y1="-70" x2="240.5" y2="228.818" gradientUnits="userSpaceOnUse">
<stop stop-color="#F7DD43"/>
<stop offset="1" stop-color="#F7DD43" stop-opacity="0"/>
</linearGradient>
<linearGradient id="paint8_linear_175_1884" x1="240.5" y1="-70" x2="240.5" y2="228.818" gradientUnits="userSpaceOnUse">
<stop stop-color="#F7DD43"/>
<stop offset="1" stop-color="#F7DD43" stop-opacity="0"/>
</linearGradient>
<linearGradient id="paint9_linear_175_1884" x1="240.5" y1="-70" x2="240.5" y2="228.818" gradientUnits="userSpaceOnUse">
<stop stop-color="#F7DD43"/>
<stop offset="1" stop-color="#F7DD43" stop-opacity="0"/>
</linearGradient>
<linearGradient id="paint10_linear_175_1884" x1="240.5" y1="-70" x2="240.5" y2="228.818" gradientUnits="userSpaceOnUse">
<stop stop-color="#F7DD43"/>
<stop offset="1" stop-color="#F7DD43" stop-opacity="0"/>
</linearGradient>
<linearGradient id="paint11_linear_175_1884" x1="240.5" y1="-70" x2="240.5" y2="228.818" gradientUnits="userSpaceOnUse">
<stop stop-color="#F7DD43"/>
<stop offset="1" stop-color="#F7DD43" stop-opacity="0"/>
</linearGradient>
<linearGradient id="paint12_linear_175_1884" x1="240.5" y1="-70" x2="240.5" y2="228.818" gradientUnits="userSpaceOnUse">
<stop stop-color="#F7DD43"/>
<stop offset="1" stop-color="#F7DD43" stop-opacity="0"/>
</linearGradient>
<linearGradient id="paint13_linear_175_1884" x1="240.5" y1="-70" x2="240.5" y2="228.818" gradientUnits="userSpaceOnUse">
<stop stop-color="#F7DD43"/>
<stop offset="1" stop-color="#F7DD43" stop-opacity="0"/>
</linearGradient>
<linearGradient id="paint14_linear_175_1884" x1="240.5" y1="-70" x2="240.5" y2="228.818" gradientUnits="userSpaceOnUse">
<stop stop-color="#F7DD43"/>
<stop offset="1" stop-color="#F7DD43" stop-opacity="0"/>
</linearGradient>
<linearGradient id="paint15_linear_175_1884" x1="240.5" y1="-70" x2="240.5" y2="228.818" gradientUnits="userSpaceOnUse">
<stop stop-color="#F7DD43"/>
<stop offset="1" stop-color="#F7DD43" stop-opacity="0"/>
</linearGradient>
<linearGradient id="paint16_linear_175_1884" x1="240.5" y1="-70" x2="240.5" y2="228.818" gradientUnits="userSpaceOnUse">
<stop stop-color="#F7DD43"/>
<stop offset="1" stop-color="#F7DD43" stop-opacity="0"/>
</linearGradient>
<linearGradient id="paint17_linear_175_1884" x1="240.5" y1="-70" x2="240.5" y2="228.818" gradientUnits="userSpaceOnUse">
<stop stop-color="#F7DD43"/>
<stop offset="1" stop-color="#F7DD43" stop-opacity="0"/>
</linearGradient>
<linearGradient id="paint18_linear_175_1884" x1="240.5" y1="-70" x2="240.5" y2="228.818" gradientUnits="userSpaceOnUse">
<stop stop-color="#F7DD43"/>
<stop offset="1" stop-color="#F7DD43" stop-opacity="0"/>
</linearGradient>
<linearGradient id="paint19_linear_175_1884" x1="240.5" y1="-70" x2="240.5" y2="228.818" gradientUnits="userSpaceOnUse">
<stop stop-color="#F7DD43"/>
<stop offset="1" stop-color="#F7DD43" stop-opacity="0"/>
</linearGradient>
<linearGradient id="paint20_linear_175_1884" x1="240.5" y1="-70" x2="240.5" y2="228.818" gradientUnits="userSpaceOnUse">
<stop stop-color="#F7DD43"/>
<stop offset="1" stop-color="#F7DD43" stop-opacity="0"/>
</linearGradient>
<linearGradient id="paint21_linear_175_1884" x1="240.5" y1="-70" x2="240.5" y2="228.818" gradientUnits="userSpaceOnUse">
<stop stop-color="#F7DD43"/>
<stop offset="1" stop-color="#F7DD43" stop-opacity="0"/>
</linearGradient>
<linearGradient id="paint22_linear_175_1884" x1="240.5" y1="-70" x2="240.5" y2="228.818" gradientUnits="userSpaceOnUse">
<stop stop-color="#F7DD43"/>
<stop offset="1" stop-color="#F7DD43" stop-opacity="0"/>
</linearGradient>
<linearGradient id="paint23_linear_175_1884" x1="240.5" y1="-70" x2="240.5" y2="228.818" gradientUnits="userSpaceOnUse">
<stop stop-color="#F7DD43"/>
<stop offset="1" stop-color="#F7DD43" stop-opacity="0"/>
</linearGradient>
<linearGradient id="paint24_linear_175_1884" x1="240.5" y1="-70" x2="240.5" y2="228.818" gradientUnits="userSpaceOnUse">
<stop stop-color="#F7DD43"/>
<stop offset="1" stop-color="#F7DD43" stop-opacity="0"/>
</linearGradient>
<linearGradient id="paint25_linear_175_1884" x1="240.5" y1="-70" x2="240.5" y2="228.818" gradientUnits="userSpaceOnUse">
<stop stop-color="#F7DD43"/>
<stop offset="1" stop-color="#F7DD43" stop-opacity="0"/>
</linearGradient>
<linearGradient id="paint26_linear_175_1884" x1="240.5" y1="-70" x2="240.5" y2="228.818" gradientUnits="userSpaceOnUse">
<stop stop-color="#F7DD43"/>
<stop offset="1" stop-color="#F7DD43" stop-opacity="0"/>
</linearGradient>
<linearGradient id="paint27_linear_175_1884" x1="240.5" y1="-70" x2="240.5" y2="228.818" gradientUnits="userSpaceOnUse">
<stop stop-color="#F7DD43"/>
<stop offset="1" stop-color="#F7DD43" stop-opacity="0"/>
</linearGradient>
<linearGradient id="paint28_linear_175_1884" x1="240.5" y1="-70" x2="240.5" y2="228.818" gradientUnits="userSpaceOnUse">
<stop stop-color="#F7DD43"/>
<stop offset="1" stop-color="#F7DD43" stop-opacity="0"/>
</linearGradient>
<linearGradient id="paint29_linear_175_1884" x1="240.5" y1="-70" x2="240.5" y2="228.818" gradientUnits="userSpaceOnUse">
<stop stop-color="#F7DD43"/>
<stop offset="1" stop-color="#F7DD43" stop-opacity="0"/>
</linearGradient>
<linearGradient id="paint30_linear_175_1884" x1="240.5" y1="-70" x2="240.5" y2="228.818" gradientUnits="userSpaceOnUse">
<stop stop-color="#F7DD43"/>
<stop offset="1" stop-color="#F7DD43" stop-opacity="0"/>
</linearGradient>
<linearGradient id="paint31_linear_175_1884" x1="240.5" y1="-70" x2="240.5" y2="228.818" gradientUnits="userSpaceOnUse">
<stop stop-color="#F7DD43"/>
<stop offset="1" stop-color="#F7DD43" stop-opacity="0"/>
</linearGradient>
<linearGradient id="paint32_linear_175_1884" x1="240.5" y1="-70" x2="240.5" y2="228.818" gradientUnits="userSpaceOnUse">
<stop stop-color="#F7DD43"/>
<stop offset="1" stop-color="#F7DD43" stop-opacity="0"/>
</linearGradient>
<linearGradient id="paint33_linear_175_1884" x1="240.5" y1="-70" x2="240.5" y2="228.818" gradientUnits="userSpaceOnUse">
<stop stop-color="#F7DD43"/>
<stop offset="1" stop-color="#F7DD43" stop-opacity="0"/>
</linearGradient>
<linearGradient id="paint34_linear_175_1884" x1="240.5" y1="-70" x2="240.5" y2="228.818" gradientUnits="userSpaceOnUse">
<stop stop-color="#F7DD43"/>
<stop offset="1" stop-color="#F7DD43" stop-opacity="0"/>
</linearGradient>
<linearGradient id="paint35_linear_175_1884" x1="240.5" y1="-70" x2="240.5" y2="228.818" gradientUnits="userSpaceOnUse">
<stop stop-color="#F7DD43"/>
<stop offset="1" stop-color="#F7DD43" stop-opacity="0"/>
</linearGradient>
<linearGradient id="paint36_linear_175_1884" x1="240.5" y1="-70" x2="240.5" y2="228.818" gradientUnits="userSpaceOnUse">
<stop stop-color="#F7DD43"/>
<stop offset="1" stop-color="#F7DD43" stop-opacity="0"/>
</linearGradient>
<linearGradient id="paint37_linear_175_1884" x1="240.5" y1="-70" x2="240.5" y2="228.818" gradientUnits="userSpaceOnUse">
<stop stop-color="#F7DD43"/>
<stop offset="1" stop-color="#F7DD43" stop-opacity="0"/>
</linearGradient>
<linearGradient id="paint38_linear_175_1884" x1="240.5" y1="-70" x2="240.5" y2="228.818" gradientUnits="userSpaceOnUse">
<stop stop-color="#F7DD43"/>
<stop offset="1" stop-color="#F7DD43" stop-opacity="0"/>
</linearGradient>
<linearGradient id="paint39_linear_175_1884" x1="240.5" y1="-70" x2="240.5" y2="228.818" gradientUnits="userSpaceOnUse">
<stop stop-color="#F7DD43"/>
<stop offset="1" stop-color="#F7DD43" stop-opacity="0"/>
</linearGradient>
<linearGradient id="paint40_linear_175_1884" x1="240.5" y1="-70" x2="240.5" y2="228.818" gradientUnits="userSpaceOnUse">
<stop stop-color="#F7DD43"/>
<stop offset="1" stop-color="#F7DD43" stop-opacity="0"/>
</linearGradient>
<linearGradient id="paint41_linear_175_1884" x1="240.5" y1="-70" x2="240.5" y2="228.818" gradientUnits="userSpaceOnUse">
<stop stop-color="#F7DD43"/>
<stop offset="1" stop-color="#F7DD43" stop-opacity="0"/>
</linearGradient>
<linearGradient id="paint42_linear_175_1884" x1="240.5" y1="-70" x2="240.5" y2="228.818" gradientUnits="userSpaceOnUse">
<stop stop-color="#F7DD43"/>
<stop offset="1" stop-color="#F7DD43" stop-opacity="0"/>
</linearGradient>
<linearGradient id="paint43_linear_175_1884" x1="240.5" y1="-70" x2="240.5" y2="228.818" gradientUnits="userSpaceOnUse">
<stop stop-color="#F7DD43"/>
<stop offset="1" stop-color="#F7DD43" stop-opacity="0"/>
</linearGradient>
<linearGradient id="paint44_linear_175_1884" x1="240.5" y1="-70" x2="240.5" y2="228.818" gradientUnits="userSpaceOnUse">
<stop stop-color="#F7DD43"/>
<stop offset="1" stop-color="#F7DD43" stop-opacity="0"/>
</linearGradient>
<linearGradient id="paint45_linear_175_1884" x1="240.5" y1="-70" x2="240.5" y2="228.818" gradientUnits="userSpaceOnUse">
<stop stop-color="#F7DD43"/>
<stop offset="1" stop-color="#F7DD43" stop-opacity="0"/>
</linearGradient>
<linearGradient id="paint46_linear_175_1884" x1="240.5" y1="-70" x2="240.5" y2="228.818" gradientUnits="userSpaceOnUse">
<stop stop-color="#F7DD43"/>
<stop offset="1" stop-color="#F7DD43" stop-opacity="0"/>
</linearGradient>
<clipPath id="clip0_175_1884">
<rect width="1024" height="753" fill="white"/>
</clipPath>
</defs>
</svg>
